<svg xmlns="http://www.w3.org/2000/svg" viewBox="0 0 380.014 380.014" width="512" height="512"><g fill="#b93dc4"><path d="M171.381 202.301c-13.873-3.852-28.324 4.361-32.205 18.318l-23.279 83.743-23.279-83.743c-1.877-6.754-6.256-12.379-12.328-15.84-6.088-3.469-13.146-4.352-19.877-2.479-6.73 1.871-12.322 6.268-15.746 12.381-3.415 6.098-4.261 13.176-2.383 19.93L76.692 358.39c2.754 9.904 11.063 17.342 21.171 18.949.312.049.626.074.942.074h34.186c.314 0 .629-.025.941-.074 10.105-1.607 18.416-9.045 21.17-18.949l34.409-123.781c3.879-13.957-4.253-28.451-18.13-32.308zm6.569 29.095l-34.408 123.779c-1.461 5.252-5.779 9.228-11.068 10.238H99.321c-5.289-1.01-9.607-4.986-11.067-10.238L53.845 231.396c-1.024-3.682-.565-7.535 1.292-10.852 1.849-3.301 4.863-5.674 8.489-6.682 3.627-1.012 7.435-.533 10.722 1.342 3.303 1.881 5.685 4.945 6.708 8.629l29.061 104.539a6.002 6.002 0 0 0 7.388 4.174 5.99 5.99 0 0 0 4.168-4.178l.006.002 29.059-104.537c2.109-7.584 9.93-12.055 17.432-9.971 7.498 2.085 11.887 9.952 9.78 17.534zM299.899 315.625c14.486 0 26.273-11.719 26.273-26.121 0-14.404-11.787-26.121-26.273-26.121h-39.123v-12.146h39.123c14.486 0 26.273-11.719 26.273-26.121 0-14.404-11.787-26.121-26.273-26.121h-65.246c-14.404 0-26.121 11.785-26.121 26.273V353.74c0 14.486 11.717 26.273 26.121 26.273h65.246c14.486 0 26.273-11.719 26.273-26.121 0-14.404-11.787-26.121-26.273-26.121h-39.123v-12.147h39.123zm14.274 38.268c0 7.785-6.404 14.121-14.273 14.121h-65.246c-7.787 0-14.121-6.404-14.121-14.273V225.268c0-7.871 6.334-14.273 14.121-14.273H299.9c7.869 0 14.273 6.334 14.273 14.121 0 7.785-6.404 14.121-14.273 14.121h-45.123a6 6 0 0 0-6 6v24.146a6 6 0 0 0 6 6H299.9c7.869 0 14.273 6.334 14.273 14.121 0 7.785-6.404 14.121-14.273 14.121h-45.123a6 6 0 0 0-6 6v24.147a6 6 0 0 0 6 6H299.9c7.869 0 14.273 6.333 14.273 14.121zM132.678 128.775H93.555V26.271C93.555 11.785 81.837 0 67.434 0 53.03 0 41.312 11.785 41.312 26.271v128.475c0 14.486 11.718 26.271 26.122 26.271h65.244c14.486 0 26.273-11.719 26.273-26.121.001-14.404-11.786-26.121-26.273-26.121zm0 40.243H67.434c-7.787 0-14.122-6.402-14.122-14.271V26.271C53.312 18.402 59.647 12 67.434 12s14.121 6.402 14.121 14.271v108.504a6 6 0 0 0 6 6h45.123c7.869 0 14.273 6.334 14.273 14.121.001 7.786-6.404 14.122-14.273 14.122zM337.97 52.18c-3.883-25.537-22.35-45.859-45.951-50.572-20.078-4.011-39.521 4.173-53.396 22.049-13.878-17.878-33.319-26.059-53.402-22.05-23.604 4.713-42.07 25.037-45.951 50.572-3.189 20.977-.174 75.453 96.475 128.105a5.958 5.958 0 0 0 2.865.732l.01-.038.01.038a5.95 5.95 0 0 0 2.865-.732c96.649-52.651 99.664-107.128 96.475-128.104zm-99.35 115.984c-87.168-48.474-90.264-95.902-87.487-114.182 3.125-20.561 17.77-36.879 36.437-40.607 17.794-3.547 34.528 5.18 45.915 23.957a6 6 0 0 0 8.24 2.021 5.963 5.963 0 0 0 2.021-2.027l.01.006c11.385-18.777 28.123-27.508 45.912-23.957 18.668 3.729 33.31 20.047 36.438 40.607 2.78 18.278-.316 65.708-87.486 114.182z"/><path d="M294.335 64.398c-2.689-12.455-11.93-21.271-23.543-22.465-12.473-1.282-24.184 6.27-32.174 20.421-7.99-14.153-19.711-21.707-32.172-20.421-11.611 1.193-20.852 10.01-23.542 22.465-1.977 9.148-4.016 41.57 52.696 74.623a6.207 6.207 0 0 0 3.021.816c.949 0 2.064-.264 3.016-.816 56.712-33.052 54.673-65.474 52.698-74.623zm-55.715 62.45c-37.027-22.469-47.086-45.563-43.986-59.916 1.572-7.283 6.69-12.408 13.037-13.061 8.609-.893 17.125 6.205 22.799 18.961.779 1.918 2.826 4.115 8.148 4.115 5.371 0 7.41-2.237 8.174-4.168 5.674-12.723 14.162-19.793 22.775-18.908 6.348.652 11.465 5.779 13.037 13.061 3.102 14.353-6.957 37.447-43.984 59.916z"/></g></svg>